<svg xmlns="http://www.w3.org/2000/svg" width="662" height="88" fill="none" viewBox="0 0 662 88"><mask id="path-1-inside-1_1_22" fill="#fff"><path fill-rule="evenodd" d="M106.477 18.5119C106.477 11.5089 103.44 7.65992 96.2197 5.51592C92.8507 4.51592 87.0077 4.01092 79.0447 4.03292C64.5997 4.07192 57.7227 5.97292 52.8677 11.2699C48.4187 16.1249 45.2357 25.0899 45.0937 33.1639C44.9927 38.9369 45.3017 40.1749 47.4117 42.4249C50.3897 45.6019 53.8317 46.5729 67.9637 48.2199C79.9627 49.6179 81.6567 50.8199 77.4957 54.9809C75.6777 56.7989 74.4067 57.0459 68.1837 56.7929L60.9767 56.4999L60.6727 53.3719C60.4047 50.6199 59.9237 50.1709 56.6727 49.6329C54.6397 49.2969 50.1527 49.0169 46.7017 49.0109C40.8817 49.0009 40.3567 49.1859 39.4517 51.5649C38.9157 52.9759 38.4767 56.9909 38.4767 60.4879C38.4767 65.8329 38.8807 67.3259 41.0097 69.8569C42.4027 71.5119 45.1457 73.3959 47.1057 74.0429C52.1807 75.7179 75.7857 75.7869 82.2087 74.1459C93.2527 71.3239 98.8677 64.2539 101.454 49.9149C103.817 36.8109 99.5917 33.1379 79.4887 30.8229C70.7317 29.8139 67.9317 29.1389 67.7097 27.9809C66.9127 23.8199 73.5297 21.0369 80.9207 22.4239C84.0427 23.0089 84.4767 23.4509 84.4767 26.0449V28.9999H94.5017C104.343 28.9999 104.544 28.9529 105.502 26.4349C106.038 25.0239 106.477 21.4589 106.477 18.5119ZM130.53 39.9999C130.913 34.2249 131.396 24.0999 131.602 17.4999L131.977 5.49991L121.709 5.21491C113.357 4.98291 111.335 5.20691 110.87 6.41791C110.236 8.06991 108.788 70.1709 109.3 73.7769C109.621 76.0389 109.716 76.0519 123.783 75.7769L137.942 75.4999L145.967 58.3259C150.381 48.8799 154.214 40.9289 154.485 40.6559C154.756 40.3839 154.845 48.2249 154.683 58.0809L154.39 75.9999H183.107L184.912 72.2499C190.769 60.0809 214.477 7.25892 214.477 6.37792C214.477 6.16992 209.768 5.99991 204.012 5.99991C194.186 5.99991 193.473 6.13691 192.334 8.24991C191.667 9.48791 187.16 19.7249 182.319 30.9999L173.517 51.4999L173.477 6.30191L163.987 5.6779C158.768 5.3349 153.875 5.29391 153.114 5.58591C151.957 6.02991 139.113 31.4099 132.241 46.8329C131.179 49.2159 130.203 51.0159 130.072 50.8329C129.94 50.6499 130.147 45.7749 130.53 39.9999ZM263.5 72.7499C263.529 67.4969 259.518 11.3489 258.893 8.24991C258.447 6.04091 258.173 5.99991 243.997 5.99991C233.696 5.99991 229.241 6.35791 228.458 7.24991C225.958 10.0969 192.477 74.0559 192.477 75.9849C192.477 76.6069 196.516 76.9999 202.909 76.9999C213.17 76.9999 213.371 76.9549 215.208 74.2499C216.234 72.7379 217.605 70.2619 218.254 68.7499L219.434 65.9999H241.477L241.491 69.2499C241.523 76.9739 241.561 76.9999 253.094 76.9999H263.477L263.5 72.7499ZM334.414 36.2469C338.3 21.0279 336.587 13.3479 328.409 9.31491C324.416 7.34591 321.996 7.08491 303.977 6.68291C292.977 6.43691 283.198 6.43891 282.247 6.68791C281.269 6.94291 280.094 8.73992 279.545 10.8199C277.293 19.3449 265.552 71.7489 265.277 74.4999L264.977 77.4999H285.806L289.977 61.4999L301.477 60.8909C315.455 60.1509 320.417 58.8689 325.049 54.8029C329.569 50.8339 331.837 46.3409 334.414 36.2469ZM656.896 21.9999C655.202 18.4249 652.224 13.8129 650.278 11.7499C648.333 9.68791 646.325 7.99991 645.817 7.99991C644.953 7.99991 639.223 13.7119 635.072 18.7119C633.272 20.8799 633.289 20.9879 635.904 24.0959C642.333 31.7359 645.084 40.9979 643.365 49.2159C641.964 55.9139 637.873 63.5819 634.369 66.0769L631.66 68.0059L628.986 64.8279C626.839 62.2769 626.132 61.9309 625.401 63.0749C624.002 65.2649 618.013 83.8689 618.538 84.3939C619.496 85.3519 634.165 85.9709 638.82 85.2499L643.663 84.4999L641.57 81.8419C640.419 80.3809 639.48 78.8059 639.485 78.3419C639.489 77.8789 641.253 76.4949 643.404 75.2659C648.391 72.4189 653.66 65.9879 657.2 58.4299C657.596 57.5835 657.973 56.8335 658.327 56.1291C660.253 52.2982 661.5 49.816 661.5 40.4999C661.5 31.0661 660.325 28.7711 658.252 24.7245C657.836 23.9112 657.383 23.027 656.896 21.9999ZM294.477 40.5809C294.477 39.6899 297.722 27.4599 298.146 26.7499C298.835 25.5989 309.348 25.8599 311.638 27.0859C313.331 27.9919 313.555 28.7729 312.986 31.8019C312.612 33.7979 311.658 36.6839 310.866 38.2149C309.485 40.8849 309.116 40.9999 301.951 40.9999C297.84 40.9999 294.477 40.8109 294.477 40.5809ZM229.477 48.3829C229.477 48.0439 231.614 43.3559 234.227 37.9649L238.977 28.1629L239.618 33.8309C239.971 36.9489 240.309 41.6369 240.368 44.2499L240.477 48.9999H234.977C231.952 48.9999 229.477 48.7229 229.477 48.3829Z" clip-rule="evenodd"/><path d="M449.141 8.771C450.003 9.32 449.69 12.487 447.932 21.006C446.628 27.328 445.542 32.776 445.519 33.114C445.478 33.715 461.926 33.196 464.062 32.528C464.659 32.342 465.934 28.434 466.896 23.845C467.858 19.255 469.075 13.813 469.6 11.75L470.554 8H481.016C493.243 8 492.638 7.08601 489.538 20.876C488.472 25.619 486.253 35.8 484.606 43.5C482.96 51.2 480.577 62.337 479.31 68.25L477.008 79H466.242C460.321 79 455.477 78.6 455.477 78.11C455.477 77.127 459.015 59.688 460.056 55.542L460.713 52.925L440.977 53.5L438.424 65.017C434.745 81.608 436.067 80.129 425.096 79.925C419.922 79.828 415.215 79.456 414.634 79.097C413.915 78.653 414.205 75.578 415.54 69.472C416.619 64.537 419.772 49.775 422.546 36.668C425.32 23.56 428.003 11.748 428.508 10.418C429.39 8.099 429.807 8.001 438.702 8.015C443.803 8.024 448.501 8.364 449.141 8.771Z"/><path d="M400.171 3.5C399.662 6.635 399.839 7 401.862 7C406.355 7 413.461 10.169 415.552 13.106C417.784 16.24 418.381 21.966 417.132 28.25L416.386 32H395.477V29C395.477 26.303 395.149 25.99 392.227 25.899C383.019 25.612 378.477 27.163 378.477 30.596C378.477 32.626 379.703 32.973 390.49 34.001C402.954 35.189 407.772 36.57 411.13 39.918C413.589 42.37 413.695 42.904 413.223 50.525C412.303 65.396 406.266 74.112 394.623 77.379C391.445 78.271 387.709 79 386.32 79C384.234 79 383.582 79.706 382.581 83.048L381.368 87.097L369.977 86.5L369.926 83C369.877 79.559 369.792 79.49 364.888 78.885C354.062 77.55 349.969 73.198 349.991 63.044C350.001 58.0923 349.95 55.5528 351.195 54.2869C352.556 52.9019 355.468 53.0415 361.709 53.215L371.977 53.5V56.447C371.977 59.812 373.948 60.734 381.504 60.9C386.859 61.018 390.477 58.861 390.477 55.55C390.477 52.777 388.827 52 382.936 52C380.529 52 375.128 51.49 370.936 50.866C357.782 48.91 354.116 43.399 356.945 29.833C359.869 15.808 367.004 8.969 380.462 7.295C386.591 6.532 386.886 6.368 387.693 3.25C388.526 0.03 388.591 0 394.636 0H400.739L400.171 3.5Z"/><path fill-rule="evenodd" d="M549.388 12C559.24 17.583 560.348 23.787 555.462 45.985C551.859 62.349 549.225 68.413 543.761 72.919C536.891 78.586 530.57 80.318 516.477 80.395C502.239 80.473 497.035 79.307 492.036 74.918C487.246 70.712 486.201 65.223 488.065 54.056C492.307 28.633 496.008 19.852 504.834 14.269C511.956 9.765 515.836 9.023 530.977 9.271C543.839 9.481 545.336 9.703 549.388 12ZM536.463 42.325C538.587 31.635 538.23 27.887 534.972 26.636C534.06 26.286 530.088 26.012 526.145 26.027C514.194 26.071 513.233 27.251 508.968 47.125C505.958 61.151 507.599 63.957 518.826 63.985C530.588 64.015 532.661 61.469 536.463 42.325Z" clip-rule="evenodd"/><path fill-rule="evenodd" d="M615.441 12.25C621.919 15.572 623.763 19.603 623.101 29C622.202 41.764 617.408 54.062 611.518 58.718C608.126 61.399 600.61 62.936 589.538 63.213L578.1 63.5L573.977 80.5L564.065 80.788C558.614 80.947 553.786 80.709 553.336 80.259C552.887 79.81 553.358 75.855 554.382 71.471C555.406 67.087 558.591 52.025 561.459 38C564.326 23.975 566.84 11.938 567.043 11.25C567.325 10.3 572.643 10 589.234 10C609.895 10 611.286 10.119 615.441 12.25ZM601.108 41.34C603.206 36.32 603.403 29.196 601.477 27.979C599.156 26.512 583.508 26.741 582.961 28.25C582.244 30.226 579.477 43.978 579.477 45.565C579.477 46.683 581.12 47 586.912 47C596.505 47 599.191 45.929 601.108 41.34Z" clip-rule="evenodd"/><path d="M43.6897 1.54601C44.2467 2.10301 38.6457 17.948 36.4247 22.097L35.2017 24.382L32.7727 21.558C30.5747 19.002 30.1147 18.856 27.9397 20.02C24.6677 21.771 20.6387 27.813 18.9077 33.562C16.0407 43.09 17.5987 51.255 23.9797 60.138C25.9037 62.814 27.4597 65.341 27.4397 65.752C27.4197 66.164 24.7017 69.425 21.3997 73L15.3977 79.5L10.5137 74.264C3.12571 66.342 0.0323145 60.125 0.000314505 46C-0.0205322 36.4731 0.994881 34.3497 3.07501 29.9998C3.28987 29.5505 3.51609 29.0774 3.75371 28.57C8.03071 19.438 12.2817 14.811 22.3407 8.34C22.5407 8.211 21.7537 6.896 20.5907 5.418C19.4277 3.94 18.4767 2.34101 18.4767 1.86501C18.4767 0.938006 42.7747 0.631005 43.6897 1.54601Z"/></mask><path fill="#F3DE00" fill-rule="evenodd" d="M106.477 18.5119C106.477 11.5089 103.44 7.65992 96.2197 5.51592C92.8507 4.51592 87.0077 4.01092 79.0447 4.03292C64.5997 4.07192 57.7227 5.97292 52.8677 11.2699C48.4187 16.1249 45.2357 25.0899 45.0937 33.1639C44.9927 38.9369 45.3017 40.1749 47.4117 42.4249C50.3897 45.6019 53.8317 46.5729 67.9637 48.2199C79.9627 49.6179 81.6567 50.8199 77.4957 54.9809C75.6777 56.7989 74.4067 57.0459 68.1837 56.7929L60.9767 56.4999L60.6727 53.3719C60.4047 50.6199 59.9237 50.1709 56.6727 49.6329C54.6397 49.2969 50.1527 49.0169 46.7017 49.0109C40.8817 49.0009 40.3567 49.1859 39.4517 51.5649C38.9157 52.9759 38.4767 56.9909 38.4767 60.4879C38.4767 65.8329 38.8807 67.3259 41.0097 69.8569C42.4027 71.5119 45.1457 73.3959 47.1057 74.0429C52.1807 75.7179 75.7857 75.7869 82.2087 74.1459C93.2527 71.3239 98.8677 64.2539 101.454 49.9149C103.817 36.8109 99.5917 33.1379 79.4887 30.8229C70.7317 29.8139 67.9317 29.1389 67.7097 27.9809C66.9127 23.8199 73.5297 21.0369 80.9207 22.4239C84.0427 23.0089 84.4767 23.4509 84.4767 26.0449V28.9999H94.5017C104.343 28.9999 104.544 28.9529 105.502 26.4349C106.038 25.0239 106.477 21.4589 106.477 18.5119ZM130.53 39.9999C130.913 34.2249 131.396 24.0999 131.602 17.4999L131.977 5.49991L121.709 5.21491C113.357 4.98291 111.335 5.20691 110.87 6.41791C110.236 8.06991 108.788 70.1709 109.3 73.7769C109.621 76.0389 109.716 76.0519 123.783 75.7769L137.942 75.4999L145.967 58.3259C150.381 48.8799 154.214 40.9289 154.485 40.6559C154.756 40.3839 154.845 48.2249 154.683 58.0809L154.39 75.9999H183.107L184.912 72.2499C190.769 60.0809 214.477 7.25892 214.477 6.37792C214.477 6.16992 209.768 5.99991 204.012 5.99991C194.186 5.99991 193.473 6.13691 192.334 8.24991C191.667 9.48791 187.16 19.7249 182.319 30.9999L173.517 51.4999L173.477 6.30191L163.987 5.6779C158.768 5.3349 153.875 5.29391 153.114 5.58591C151.957 6.02991 139.113 31.4099 132.241 46.8329C131.179 49.2159 130.203 51.0159 130.072 50.8329C129.94 50.6499 130.147 45.7749 130.53 39.9999ZM263.5 72.7499C263.529 67.4969 259.518 11.3489 258.893 8.24991C258.447 6.04091 258.173 5.99991 243.997 5.99991C233.696 5.99991 229.241 6.35791 228.458 7.24991C225.958 10.0969 192.477 74.0559 192.477 75.9849C192.477 76.6069 196.516 76.9999 202.909 76.9999C213.17 76.9999 213.371 76.9549 215.208 74.2499C216.234 72.7379 217.605 70.2619 218.254 68.7499L219.434 65.9999H241.477L241.491 69.2499C241.523 76.9739 241.561 76.9999 253.094 76.9999H263.477L263.5 72.7499ZM334.414 36.2469C338.3 21.0279 336.587 13.3479 328.409 9.31491C324.416 7.34591 321.996 7.08491 303.977 6.68291C292.977 6.43691 283.198 6.43891 282.247 6.68791C281.269 6.94291 280.094 8.73992 279.545 10.8199C277.293 19.3449 265.552 71.7489 265.277 74.4999L264.977 77.4999H285.806L289.977 61.4999L301.477 60.8909C315.455 60.1509 320.417 58.8689 325.049 54.8029C329.569 50.8339 331.837 46.3409 334.414 36.2469ZM656.896 21.9999C655.202 18.4249 652.224 13.8129 650.278 11.7499C648.333 9.68791 646.325 7.99991 645.817 7.99991C644.953 7.99991 639.223 13.7119 635.072 18.7119C633.272 20.8799 633.289 20.9879 635.904 24.0959C642.333 31.7359 645.084 40.9979 643.365 49.2159C641.964 55.9139 637.873 63.5819 634.369 66.0769L631.66 68.0059L628.986 64.8279C626.839 62.2769 626.132 61.9309 625.401 63.0749C624.002 65.2649 618.013 83.8689 618.538 84.3939C619.496 85.3519 634.165 85.9709 638.82 85.2499L643.663 84.4999L641.57 81.8419C640.419 80.3809 639.48 78.8059 639.485 78.3419C639.489 77.8789 641.253 76.4949 643.404 75.2659C648.391 72.4189 653.66 65.9879 657.2 58.4299C657.596 57.5835 657.973 56.8335 658.327 56.1291C660.253 52.2982 661.5 49.816 661.5 40.4999C661.5 31.0661 660.325 28.7711 658.252 24.7245C657.836 23.9112 657.383 23.027 656.896 21.9999ZM294.477 40.5809C294.477 39.6899 297.722 27.4599 298.146 26.7499C298.835 25.5989 309.348 25.8599 311.638 27.0859C313.331 27.9919 313.555 28.7729 312.986 31.8019C312.612 33.7979 311.658 36.6839 310.866 38.2149C309.485 40.8849 309.116 40.9999 301.951 40.9999C297.84 40.9999 294.477 40.8109 294.477 40.5809ZM229.477 48.3829C229.477 48.0439 231.614 43.3559 234.227 37.9649L238.977 28.1629L239.618 33.8309C239.971 36.9489 240.309 41.6369 240.368 44.2499L240.477 48.9999H234.977C231.952 48.9999 229.477 48.7229 229.477 48.3829Z" clip-rule="evenodd"/><path fill="#E30000" d="M449.141 8.771C450.003 9.32 449.69 12.487 447.932 21.006C446.628 27.328 445.542 32.776 445.519 33.114C445.478 33.715 461.926 33.196 464.062 32.528C464.659 32.342 465.934 28.434 466.896 23.845C467.858 19.255 469.075 13.813 469.6 11.75L470.554 8H481.016C493.243 8 492.638 7.08601 489.538 20.876C488.472 25.619 486.253 35.8 484.606 43.5C482.96 51.2 480.577 62.337 479.31 68.25L477.008 79H466.242C460.321 79 455.477 78.6 455.477 78.11C455.477 77.127 459.015 59.688 460.056 55.542L460.713 52.925L440.977 53.5L438.424 65.017C434.745 81.608 436.067 80.129 425.096 79.925C419.922 79.828 415.215 79.456 414.634 79.097C413.915 78.653 414.205 75.578 415.54 69.472C416.619 64.537 419.772 49.775 422.546 36.668C425.32 23.56 428.003 11.748 428.508 10.418C429.39 8.099 429.807 8.001 438.702 8.015C443.803 8.024 448.501 8.364 449.141 8.771Z"/><path fill="#E30000" d="M400.171 3.5C399.662 6.635 399.839 7 401.862 7C406.355 7 413.461 10.169 415.552 13.106C417.784 16.24 418.381 21.966 417.132 28.25L416.386 32H395.477V29C395.477 26.303 395.149 25.99 392.227 25.899C383.019 25.612 378.477 27.163 378.477 30.596C378.477 32.626 379.703 32.973 390.49 34.001C402.954 35.189 407.772 36.57 411.13 39.918C413.589 42.37 413.695 42.904 413.223 50.525C412.303 65.396 406.266 74.112 394.623 77.379C391.445 78.271 387.709 79 386.32 79C384.234 79 383.582 79.706 382.581 83.048L381.368 87.097L369.977 86.5L369.926 83C369.877 79.559 369.792 79.49 364.888 78.885C354.062 77.55 349.969 73.198 349.991 63.044C350.001 58.0923 349.95 55.5528 351.195 54.2869C352.556 52.9019 355.468 53.0415 361.709 53.215L371.977 53.5V56.447C371.977 59.812 373.948 60.734 381.504 60.9C386.859 61.018 390.477 58.861 390.477 55.55C390.477 52.777 388.827 52 382.936 52C380.529 52 375.128 51.49 370.936 50.866C357.782 48.91 354.116 43.399 356.945 29.833C359.869 15.808 367.004 8.969 380.462 7.295C386.591 6.532 386.886 6.368 387.693 3.25C388.526 0.03 388.591 0 394.636 0H400.739L400.171 3.5Z"/><path fill="#E30000" fill-rule="evenodd" d="M549.388 12C559.24 17.583 560.348 23.787 555.462 45.985C551.859 62.349 549.225 68.413 543.761 72.919C536.891 78.586 530.57 80.318 516.477 80.395C502.239 80.473 497.035 79.307 492.036 74.918C487.246 70.712 486.201 65.223 488.065 54.056C492.307 28.633 496.008 19.852 504.834 14.269C511.956 9.765 515.836 9.023 530.977 9.271C543.839 9.481 545.336 9.703 549.388 12ZM536.463 42.325C538.587 31.635 538.23 27.887 534.972 26.636C534.06 26.286 530.088 26.012 526.145 26.027C514.194 26.071 513.233 27.251 508.968 47.125C505.958 61.151 507.599 63.957 518.826 63.985C530.588 64.015 532.661 61.469 536.463 42.325Z" clip-rule="evenodd"/><path fill="#E30000" fill-rule="evenodd" d="M615.441 12.25C621.919 15.572 623.763 19.603 623.101 29C622.202 41.764 617.408 54.062 611.518 58.718C608.126 61.399 600.61 62.936 589.538 63.213L578.1 63.5L573.977 80.5L564.065 80.788C558.614 80.947 553.786 80.709 553.336 80.259C552.887 79.81 553.358 75.855 554.382 71.471C555.406 67.087 558.591 52.025 561.459 38C564.326 23.975 566.84 11.938 567.043 11.25C567.325 10.3 572.643 10 589.234 10C609.895 10 611.286 10.119 615.441 12.25ZM601.108 41.34C603.206 36.32 603.403 29.196 601.477 27.979C599.156 26.512 583.508 26.741 582.961 28.25C582.244 30.226 579.477 43.978 579.477 45.565C579.477 46.683 581.12 47 586.912 47C596.505 47 599.191 45.929 601.108 41.34Z" clip-rule="evenodd"/><path fill="#E30000" d="M43.6897 1.54601C44.2467 2.10301 38.6457 17.948 36.4247 22.097L35.2017 24.382L32.7727 21.558C30.5747 19.002 30.1147 18.856 27.9397 20.02C24.6677 21.771 20.6387 27.813 18.9077 33.562C16.0407 43.09 17.5987 51.255 23.9797 60.138C25.9037 62.814 27.4597 65.341 27.4397 65.752C27.4197 66.164 24.7017 69.425 21.3997 73L15.3977 79.5L10.5137 74.264C3.12571 66.342 0.0323145 60.125 0.000314505 46C-0.0205322 36.4731 0.994881 34.3497 3.07501 29.9998C3.28987 29.5505 3.51609 29.0774 3.75371 28.57C8.03071 19.438 12.2817 14.811 22.3407 8.34C22.5407 8.211 21.7537 6.896 20.5907 5.418C19.4277 3.94 18.4767 2.34101 18.4767 1.86501C18.4767 0.938006 42.7747 0.631005 43.6897 1.54601Z"/><path fill-rule="evenodd" stroke="#000" stroke-width="4" d="M106.477 18.5119C106.477 11.5089 103.44 7.65992 96.2197 5.51592C92.8507 4.51592 87.0077 4.01092 79.0447 4.03292C64.5997 4.07192 57.7227 5.97292 52.8677 11.2699C48.4187 16.1249 45.2357 25.0899 45.0937 33.1639C44.9927 38.9369 45.3017 40.1749 47.4117 42.4249C50.3897 45.6019 53.8317 46.5729 67.9637 48.2199C79.9627 49.6179 81.6567 50.8199 77.4957 54.9809C75.6777 56.7989 74.4067 57.0459 68.1837 56.7929L60.9767 56.4999L60.6727 53.3719C60.4047 50.6199 59.9237 50.1709 56.6727 49.6329C54.6397 49.2969 50.1527 49.0169 46.7017 49.0109C40.8817 49.0009 40.3567 49.1859 39.4517 51.5649C38.9157 52.9759 38.4767 56.9909 38.4767 60.4879C38.4767 65.8329 38.8807 67.3259 41.0097 69.8569C42.4027 71.5119 45.1457 73.3959 47.1057 74.0429C52.1807 75.7179 75.7857 75.7869 82.2087 74.1459C93.2527 71.3239 98.8677 64.2539 101.454 49.9149C103.817 36.8109 99.5917 33.1379 79.4887 30.8229C70.7317 29.8139 67.9317 29.1389 67.7097 27.9809C66.9127 23.8199 73.5297 21.0369 80.9207 22.4239C84.0427 23.0089 84.4767 23.4509 84.4767 26.0449V28.9999H94.5017C104.343 28.9999 104.544 28.9529 105.502 26.4349C106.038 25.0239 106.477 21.4589 106.477 18.5119ZM130.53 39.9999C130.913 34.2249 131.396 24.0999 131.602 17.4999L131.977 5.49991L121.709 5.21491C113.357 4.98291 111.335 5.20691 110.87 6.41791C110.236 8.06991 108.788 70.1709 109.3 73.7769C109.621 76.0389 109.716 76.0519 123.783 75.7769L137.942 75.4999L145.967 58.3259C150.381 48.8799 154.214 40.9289 154.485 40.6559C154.756 40.3839 154.845 48.2249 154.683 58.0809L154.39 75.9999H183.107L184.912 72.2499C190.769 60.0809 214.477 7.25892 214.477 6.37792C214.477 6.16992 209.768 5.99991 204.012 5.99991C194.186 5.99991 193.473 6.13691 192.334 8.24991C191.667 9.48791 187.16 19.7249 182.319 30.9999L173.517 51.4999L173.477 6.30191L163.987 5.6779C158.768 5.3349 153.875 5.29391 153.114 5.58591C151.957 6.02991 139.113 31.4099 132.241 46.8329C131.179 49.2159 130.203 51.0159 130.072 50.8329C129.94 50.6499 130.147 45.7749 130.53 39.9999ZM263.5 72.7499C263.529 67.4969 259.518 11.3489 258.893 8.24991C258.447 6.04091 258.173 5.99991 243.997 5.99991C233.696 5.99991 229.241 6.35791 228.458 7.24991C225.958 10.0969 192.477 74.0559 192.477 75.9849C192.477 76.6069 196.516 76.9999 202.909 76.9999C213.17 76.9999 213.371 76.9549 215.208 74.2499C216.234 72.7379 217.605 70.2619 218.254 68.7499L219.434 65.9999H241.477L241.491 69.2499C241.523 76.9739 241.561 76.9999 253.094 76.9999H263.477L263.5 72.7499ZM334.414 36.2469C338.3 21.0279 336.587 13.3479 328.409 9.31491C324.416 7.34591 321.996 7.08491 303.977 6.68291C292.977 6.43691 283.198 6.43891 282.247 6.68791C281.269 6.94291 280.094 8.73992 279.545 10.8199C277.293 19.3449 265.552 71.7489 265.277 74.4999L264.977 77.4999H285.806L289.977 61.4999L301.477 60.8909C315.455 60.1509 320.417 58.8689 325.049 54.8029C329.569 50.8339 331.837 46.3409 334.414 36.2469ZM656.896 21.9999C655.202 18.4249 652.224 13.8129 650.278 11.7499C648.333 9.68791 646.325 7.99991 645.817 7.99991C644.953 7.99991 639.223 13.7119 635.072 18.7119C633.272 20.8799 633.289 20.9879 635.904 24.0959C642.333 31.7359 645.084 40.9979 643.365 49.2159C641.964 55.9139 637.873 63.5819 634.369 66.0769L631.66 68.0059L628.986 64.8279C626.839 62.2769 626.132 61.9309 625.401 63.0749C624.002 65.2649 618.013 83.8689 618.538 84.3939C619.496 85.3519 634.165 85.9709 638.82 85.2499L643.663 84.4999L641.57 81.8419C640.419 80.3809 639.48 78.8059 639.485 78.3419C639.489 77.8789 641.253 76.4949 643.404 75.2659C648.391 72.4189 653.66 65.9879 657.2 58.4299C657.596 57.5835 657.973 56.8335 658.327 56.1291C660.253 52.2982 661.5 49.816 661.5 40.4999C661.5 31.0661 660.325 28.7711 658.252 24.7245C657.836 23.9112 657.383 23.027 656.896 21.9999ZM294.477 40.5809C294.477 39.6899 297.722 27.4599 298.146 26.7499C298.835 25.5989 309.348 25.8599 311.638 27.0859C313.331 27.9919 313.555 28.7729 312.986 31.8019C312.612 33.7979 311.658 36.6839 310.866 38.2149C309.485 40.8849 309.116 40.9999 301.951 40.9999C297.84 40.9999 294.477 40.8109 294.477 40.5809ZM229.477 48.3829C229.477 48.0439 231.614 43.3559 234.227 37.9649L238.977 28.1629L239.618 33.8309C239.971 36.9489 240.309 41.6369 240.368 44.2499L240.477 48.9999H234.977C231.952 48.9999 229.477 48.7229 229.477 48.3829Z" clip-rule="evenodd" mask="url(#path-1-inside-1_1_22)"/><path stroke="#000" stroke-width="4" d="M449.141 8.771C450.003 9.32 449.69 12.487 447.932 21.006C446.628 27.328 445.542 32.776 445.519 33.114C445.478 33.715 461.926 33.196 464.062 32.528C464.659 32.342 465.934 28.434 466.896 23.845C467.858 19.255 469.075 13.813 469.6 11.75L470.554 8H481.016C493.243 8 492.638 7.08601 489.538 20.876C488.472 25.619 486.253 35.8 484.606 43.5C482.96 51.2 480.577 62.337 479.31 68.25L477.008 79H466.242C460.321 79 455.477 78.6 455.477 78.11C455.477 77.127 459.015 59.688 460.056 55.542L460.713 52.925L440.977 53.5L438.424 65.017C434.745 81.608 436.067 80.129 425.096 79.925C419.922 79.828 415.215 79.456 414.634 79.097C413.915 78.653 414.205 75.578 415.54 69.472C416.619 64.537 419.772 49.775 422.546 36.668C425.32 23.56 428.003 11.748 428.508 10.418C429.39 8.099 429.807 8.001 438.702 8.015C443.803 8.024 448.501 8.364 449.141 8.771Z" mask="url(#path-1-inside-1_1_22)"/><path stroke="#000" stroke-width="4" d="M400.171 3.5C399.662 6.635 399.839 7 401.862 7C406.355 7 413.461 10.169 415.552 13.106C417.784 16.24 418.381 21.966 417.132 28.25L416.386 32H395.477V29C395.477 26.303 395.149 25.99 392.227 25.899C383.019 25.612 378.477 27.163 378.477 30.596C378.477 32.626 379.703 32.973 390.49 34.001C402.954 35.189 407.772 36.57 411.13 39.918C413.589 42.37 413.695 42.904 413.223 50.525C412.303 65.396 406.266 74.112 394.623 77.379C391.445 78.271 387.709 79 386.32 79C384.234 79 383.582 79.706 382.581 83.048L381.368 87.097L369.977 86.5L369.926 83C369.877 79.559 369.792 79.49 364.888 78.885C354.062 77.55 349.969 73.198 349.991 63.044C350.001 58.0923 349.95 55.5528 351.195 54.2869C352.556 52.9019 355.468 53.0415 361.709 53.215L371.977 53.5V56.447C371.977 59.812 373.948 60.734 381.504 60.9C386.859 61.018 390.477 58.861 390.477 55.55C390.477 52.777 388.827 52 382.936 52C380.529 52 375.128 51.49 370.936 50.866C357.782 48.91 354.116 43.399 356.945 29.833C359.869 15.808 367.004 8.969 380.462 7.295C386.591 6.532 386.886 6.368 387.693 3.25C388.526 0.03 388.591 0 394.636 0H400.739L400.171 3.5Z" mask="url(#path-1-inside-1_1_22)"/><path fill-rule="evenodd" stroke="#000" stroke-width="4" d="M549.388 12C559.24 17.583 560.348 23.787 555.462 45.985C551.859 62.349 549.225 68.413 543.761 72.919C536.891 78.586 530.57 80.318 516.477 80.395C502.239 80.473 497.035 79.307 492.036 74.918C487.246 70.712 486.201 65.223 488.065 54.056C492.307 28.633 496.008 19.852 504.834 14.269C511.956 9.765 515.836 9.023 530.977 9.271C543.839 9.481 545.336 9.703 549.388 12ZM536.463 42.325C538.587 31.635 538.23 27.887 534.972 26.636C534.06 26.286 530.088 26.012 526.145 26.027C514.194 26.071 513.233 27.251 508.968 47.125C505.958 61.151 507.599 63.957 518.826 63.985C530.588 64.015 532.661 61.469 536.463 42.325Z" clip-rule="evenodd" mask="url(#path-1-inside-1_1_22)"/><path fill-rule="evenodd" stroke="#000" stroke-width="4" d="M615.441 12.25C621.919 15.572 623.763 19.603 623.101 29C622.202 41.764 617.408 54.062 611.518 58.718C608.126 61.399 600.61 62.936 589.538 63.213L578.1 63.5L573.977 80.5L564.065 80.788C558.614 80.947 553.786 80.709 553.336 80.259C552.887 79.81 553.358 75.855 554.382 71.471C555.406 67.087 558.591 52.025 561.459 38C564.326 23.975 566.84 11.938 567.043 11.25C567.325 10.3 572.643 10 589.234 10C609.895 10 611.286 10.119 615.441 12.25ZM601.108 41.34C603.206 36.32 603.403 29.196 601.477 27.979C599.156 26.512 583.508 26.741 582.961 28.25C582.244 30.226 579.477 43.978 579.477 45.565C579.477 46.683 581.12 47 586.912 47C596.505 47 599.191 45.929 601.108 41.34Z" clip-rule="evenodd" mask="url(#path-1-inside-1_1_22)"/><path stroke="#000" stroke-width="4" d="M43.6897 1.54601C44.2467 2.10301 38.6457 17.948 36.4247 22.097L35.2017 24.382L32.7727 21.558C30.5747 19.002 30.1147 18.856 27.9397 20.02C24.6677 21.771 20.6387 27.813 18.9077 33.562C16.0407 43.09 17.5987 51.255 23.9797 60.138C25.9037 62.814 27.4597 65.341 27.4397 65.752C27.4197 66.164 24.7017 69.425 21.3997 73L15.3977 79.5L10.5137 74.264C3.12571 66.342 0.0323145 60.125 0.000314505 46C-0.0205322 36.4731 0.994881 34.3497 3.07501 29.9998C3.28987 29.5505 3.51609 29.0774 3.75371 28.57C8.03071 19.438 12.2817 14.811 22.3407 8.34C22.5407 8.211 21.7537 6.896 20.5907 5.418C19.4277 3.94 18.4767 2.34101 18.4767 1.86501C18.4767 0.938006 42.7747 0.631005 43.6897 1.54601Z" mask="url(#path-1-inside-1_1_22)"/></svg>